<svg xmlns="http://www.w3.org/2000/svg" viewBox="0 0 89.768 110.21">
	<defs>
		<style>
			.pin {
				fill: #fff;
				stroke: #fff;
				stroke-miterlimit: 10;
				stroke-width: 0.25px;
			}
			
			.tick {
				fill: #aaa;
			}
		</style>
	</defs>
	
	<title>pin-with-check</title>
	
	<!-- Pin -->
	<path class="pin" d="M321.111,297.227c17.206-.7,37.8,14.949,42.394,31.343,5.126,18.294-2.376,32.8-12.8,46.541-8.466,11.162-18.982,20.413-29.054,30.065-1.917,1.837-3.746,3.186-5.714.377-9.154-13.063-21.06-24.008-29.237-37.8-4.7-7.924-10.3-15.451-11-25.237-0.412-5.762,1.243-10.835,3.691-15.79,5.7-11.544,12.636-21.908,25.612-26.46A58.738,58.738,0,0,1,321.111,297.227Z" transform="translate(-275.515 -297.079)"/>

	<!-- Tick -->
	<path class="tick" d="M314.443,373.08c-3.811-4.492-7.5-9.1-11.485-13.426-1.964-2.133-2.309-4.376-.366-6.031a4.783,4.783,0,0,1,6.751.386,52.559,52.559,0,0,1,4.526,5.856c1.835,2.551,3.382,3.283,5.4,0,4.806-7.824,9.819-15.522,14.75-23.27,0.533-.838,1.092-1.66,1.612-2.506,1.665-2.705,4.086-4.389,6.962-2.516,2.765,1.8,1.91,4.748.392,7.1-3.635,5.641-7.4,11.2-11.181,16.744-4.032,5.917-7.079,12.511-12.149,17.714" transform="translate(-275.515 -297.079)"/>
	<path class="tick" d="M319.648,373.139c-1.8,2.017-3.492,1.895-5.2-.059" transform="translate(-275.515 -297.079)"/> <!-- Curve at bottom of tick -->
	
	</svg>