<svg xmlns="http://www.w3.org/2000/svg" viewBox="0 0 89.518 109.96"><path d="M87.86 31.366C83.266 14.972 62.672-.68 45.466.023a58.738 58.738 0 00-16.1 3.043C16.39 7.618 9.457 17.982 3.754 29.526c-2.448 4.955-4.1 10.029-3.691 15.79.7 9.786 6.3 17.313 11 25.237 8.177 13.789 20.084 24.734 29.237 37.8 1.969 2.809 3.8 1.46 5.714-.377 10.072-9.651 20.588-18.9 29.054-30.065C85.488 64.166 92.99 49.66 87.86 31.366zm-20.526 10.11c-3.635 5.641-7.4 11.2-11.181 16.744-4.032 5.917-7.079 12.51-12.149 17.714-1.8 2.017-3.492 1.895-5.205-.059-3.811-4.492-7.5-9.1-11.485-13.426-1.964-2.133-2.309-4.376-.366-6.031a4.783 4.783 0 016.751.386 52.555 52.555 0 014.526 5.856c1.835 2.551 3.382 3.283 5.4 0 4.806-7.824 9.819-15.522 14.75-23.27.533-.838 1.092-1.66 1.612-2.506 1.665-2.705 4.086-4.389 6.962-2.516 2.762 1.805 1.911 4.753.389 7.109z" fill="#fff"/><path d="M66.947 34.372c-2.876-1.873-5.3-.189-6.962 2.516-.521.846-1.079 1.668-1.612 2.506-4.931 7.748-9.943 15.445-14.75 23.27-2.013 3.278-3.561 2.547-5.4 0a52.555 52.555 0 00-4.526-5.856 4.783 4.783 0 00-6.751-.386c-1.943 1.656-1.6 3.9.366 6.031 3.986 4.33 7.674 8.935 11.485 13.426 1.713 1.954 3.4 2.076 5.205.059 5.071-5.2 8.117-11.8 12.149-17.714 3.78-5.546 7.547-11.1 11.181-16.744 1.528-2.359 2.379-5.307-.385-7.108z" fill="none"/></svg>